<svg xmlns="http://www.w3.org/2000/svg" xmlns:xlink="http://www.w3.org/1999/xlink" viewBox="0,0,256,256" width="64px" height="64px"><g fill="#daa520" fill-rule="nonzero" stroke="none" stroke-width="1" stroke-linecap="butt" stroke-linejoin="miter" stroke-miterlimit="10" stroke-dasharray="" stroke-dashoffset="0" font-family="none" font-weight="none" font-size="none" text-anchor="none" style="mix-blend-mode: normal"><g transform="scale(4,4)"><path d="M12.57617,6c-3.61259,0 -6.57617,2.96358 -6.57617,6.57617v38.84766c0,3.61259 2.96358,6.57617 6.57617,6.57617h38.84766c3.61238,0 6.57617,-2.96267 6.57617,-6.57422v-38.84961c0,-3.61238 -2.9638,-6.57617 -6.57617,-6.57617zM12.57617,8h38.84766c2.52163,0 4.57617,2.05455 4.57617,4.57617v38.84961c0,2.52045 -2.05455,4.57422 -4.57617,4.57422h-38.84766c-2.52141,0 -4.57617,-2.05477 -4.57617,-4.57617v-38.84766c0,-2.52141 2.05476,-4.57617 4.57617,-4.57617zM12,12c-0.552,0 -1,0.448 -1,1v2c0,0.552 0.448,1 1,1c0.552,0 1,-0.448 1,-1v-2c0,-0.552 -0.448,-1 -1,-1zM17,12c-0.552,0 -1,0.448 -1,1v2c0,0.552 0.448,1 1,1c0.552,0 1,-0.448 1,-1v-2c0,-0.552 -0.448,-1 -1,-1zM22,12c-0.552,0 -1,0.448 -1,1v2c0,0.552 0.448,1 1,1c0.552,0 1,-0.448 1,-1v-2c0,-0.552 -0.448,-1 -1,-1zM27,12c-0.552,0 -1,0.448 -1,1v2c0,0.552 0.448,1 1,1c0.552,0 1,-0.448 1,-1v-2c0,-0.552 -0.448,-1 -1,-1zM32,12c-0.552,0 -1,0.448 -1,1v2c0,0.552 0.448,1 1,1c0.552,0 1,-0.448 1,-1v-2c0,-0.552 -0.448,-1 -1,-1zM37,12c-0.552,0 -1,0.448 -1,1v2c0,0.552 0.448,1 1,1c0.552,0 1,-0.448 1,-1v-2c0,-0.552 -0.448,-1 -1,-1zM42,12c-0.552,0 -1,0.448 -1,1v2c0,0.552 0.448,1 1,1c0.552,0 1,-0.448 1,-1v-2c0,-0.552 -0.448,-1 -1,-1zM47,12c-0.552,0 -1,0.448 -1,1v2c0,0.552 0.448,1 1,1c0.552,0 1,-0.448 1,-1v-2c0,-0.552 -0.448,-1 -1,-1zM52,12c-0.552,0 -1,0.448 -1,1v2c0,0.552 0.448,1 1,1c0.552,0 1,-0.448 1,-1v-2c0,-0.552 -0.448,-1 -1,-1zM29.33203,30.11719c-0.55226,0.00006 -0.99994,0.44774 -1,1v14.48242c0,0.98374 -0.19534,1.39443 -0.33594,1.54297c-0.14059,0.14854 -0.38411,0.25 -0.99609,0.25c-1.13758,0 -1.86399,-0.63601 -2.46484,-1.6875c-0.13311,-0.23326 -0.35444,-0.40318 -0.61417,-0.47151c-0.25973,-0.06833 -0.53602,-0.02933 -0.76669,0.10823l-3.66797,2.19336c-0.4427,0.26508 -0.61106,0.82345 -0.38867,1.28906c1.21619,2.54232 4.1276,5.17578 8.17578,5.17578c2.17102,0 4.12809,-0.57715 5.54102,-1.89062c1.41292,-1.31347 2.18555,-3.30858 2.18555,-5.80859v-15.18359c-0.00006,-0.55226 -0.44774,-0.99994 -1,-1zM45.62695,30.11719c-4.27293,0 -7.29297,3.01408 -7.29297,6.80664c0,1.98056 0.6085,3.58786 1.66211,4.80078c1.05361,1.21292 2.48377,2.03213 4.09961,2.73633l1.07227,0.4707c0.96053,0.42969 1.62027,0.77318 1.93555,1.05273c0.31653,0.28066 0.39063,0.40743 0.39063,0.94727c0,0.38125 -0.10287,0.59612 -0.33398,0.79102c-0.23111,0.19489 -0.66127,0.37695 -1.38086,0.37695c-0.82779,0 -1.31807,-0.24301 -1.80469,-0.67578c-0.48662,-0.43277 -0.9262,-1.09493 -1.37695,-1.84766c-0.14152,-0.23646 -0.37433,-0.40405 -0.64348,-0.4632c-0.26915,-0.05915 -0.55078,-0.00463 -0.7784,0.1507l-3.37891,2.30273c-0.41164,0.28126 -0.55326,0.82275 -0.33203,1.26953c1.37736,2.78421 4.08124,5.16406 8.41602,5.16406c2.21758,0 4.2287,-0.58499 5.7207,-1.80273c1.492,-1.21775 2.39762,-3.08702 2.39648,-5.32031c-0.00043,-2.02167 -0.61747,-3.65915 -1.74805,-4.90039c-1.13062,-1.2413 -2.68613,-2.0958 -4.5625,-2.91797h-0.00195l-1.07031,-0.46875l-0.00195,-0.00195c-0.89516,-0.39679 -1.47333,-0.71991 -1.73437,-0.96289c-0.26139,-0.24331 -0.31055,-0.33123 -0.31055,-0.78906c0,-0.56756 0.23026,-0.88477 1.05664,-0.88477c0.47391,0 0.74394,0.08339 1.00977,0.26367c0.26583,0.18028 0.55689,0.50656 0.87891,1.09766c0.13376,0.24503 0.36385,0.423 0.63463,0.49088c0.27078,0.06788 0.55762,0.0195 0.79115,-0.13346l3.3457,-2.19727c0.43839,-0.28721 0.5807,-0.86413 0.32617,-1.32227c-1.55332,-2.79598 -4.01519,-4.0332 -6.98437,-4.0332zM30.33203,32.11719h2.66797v14.18359c0,2.10398 -0.5943,3.45822 -1.54687,4.34375c-0.95258,0.88553 -2.3587,1.35547 -4.17969,1.35547c-2.7602,0 -4.67701,-1.66509 -5.77148,-3.33984l1.98633,-1.1875c0.84484,1.04369 1.9568,1.91992 3.51172,1.91992c0.86902,0 1.79161,-0.18229 2.44727,-0.875c0.65566,-0.69271 0.88477,-1.67871 0.88477,-2.91797zM45.62695,32.11719c2.1294,0 3.45126,0.73276 4.60352,2.3125l-1.66211,1.09375c-0.26247,-0.33001 -0.47747,-0.73763 -0.8125,-0.96484c-0.62442,-0.42347 -1.36977,-0.60742 -2.13086,-0.60742c-1.69162,0 -3.05664,1.32033 -3.05664,2.88477c0,0.86117 0.35061,1.69671 0.94922,2.25391c0.59861,0.55719 1.34227,0.90864 2.28906,1.32813c0.00065,0.00065 0.0013,0.0013 0.00195,0.00195l1.07422,0.4707c1.77487,0.7776 3.07614,1.54152 3.88867,2.43359c0.81254,0.89207 1.22656,1.90633 1.22656,3.55469c0.00087,1.72071 -0.61291,2.91283 -1.66016,3.76758c-1.0473,0.8547 -2.59361,1.35352 -4.45703,1.35352c-3.23302,0 -5.00029,-1.39875 -6.16602,-3.32031l1.80859,-1.23242c0.33934,0.50776 0.63112,1.03321 1.12305,1.4707c0.77388,0.68823 1.8416,1.18164 3.13281,1.18164c1.06041,0 1.98853,-0.27305 2.66992,-0.84766c0.68139,-0.57461 1.04492,-1.44356 1.04492,-2.32031c0,-0.96717 -0.40798,-1.86127 -1.06445,-2.44336c-0.65648,-0.58209 -1.45989,-0.9428 -2.45313,-1.38672c-0.00195,-0.00066 -0.0039,-0.00131 -0.00586,-0.00195l-1.07422,-0.4707c-0.00065,-0.00065 -0.0013,-0.0013 -0.00195,-0.00195c-1.48416,-0.64681 -2.63483,-1.34926 -3.38672,-2.21484c-0.75189,-0.86558 -1.17383,-1.89184 -1.17383,-3.48828c0,-2.79944 1.8919,-4.80664 5.29297,-4.80664z"></path></g></g></svg>