<svg xmlns="http://www.w3.org/2000/svg" xmlns:xlink="http://www.w3.org/1999/xlink" viewBox="0,0,256,256" width="64px" height="64px"><g fill="#daa520" fill-rule="nonzero" stroke="none" stroke-width="1" stroke-linecap="butt" stroke-linejoin="miter" stroke-miterlimit="10" stroke-dasharray="" stroke-dashoffset="0" font-family="none" font-weight="none" font-size="none" text-anchor="none" style="mix-blend-mode: normal"><g transform="scale(4,4)"><path d="M7.01953,4c-1.78906,0 -3.21392,1.58909 -2.99805,3.36523l5.4668,45.24414c0.24235,2.00251 1.67371,3.66806 3.61914,4.2207l17.53516,4.97852c0.88309,0.25035 1.81944,0.25622 2.70703,0.01563l18.44141,-4.99609c2.00844,-0.5438 3.48215,-2.2704 3.68945,-4.33594l4.54883,-45.1875c0.17705,-1.75712 -1.23764,-3.30469 -3.00391,-3.30469zM7.01953,6h50.00586c0.62373,0 1.07462,0.50059 1.01367,1.10547l-0.14453,1.43555c-0.17137,-0.34463 -0.52531,-0.56033 -0.91016,-0.55469c-0.55152,0.00862 -0.99193,0.46214 -0.98437,1.01367v2c-0.00481,0.37279 0.19813,0.71732 0.52653,0.89383c0.32839,0.17651 0.72771,0.1557 1.03597,-0.05398l-4.07227,40.45117c0,0.00065 0,0.0013 0,0.00195c-0.1247,1.24246 -1.00115,2.27527 -2.2207,2.60547c-0.00065,0 -0.0013,0 -0.00195,0l-18.44141,4.99609c-0.53641,0.1454 -1.10181,0.14192 -1.63672,-0.00977l-17.53516,-4.97852c-1.18056,-0.33536 -2.03404,-1.33362 -2.17969,-2.53711l-4.88672,-40.44531c0.31155,0.14089 0.67348,0.11285 0.95961,-0.07434c0.28613,-0.18719 0.4568,-0.50759 0.4525,-0.84948v-2c0.0037,-0.2703 -0.10218,-0.53059 -0.29351,-0.72155c-0.19133,-0.19097 -0.45182,-0.29634 -0.72212,-0.29212c-0.33023,0.00543 -0.63648,0.17354 -0.81836,0.44922l-0.1582,-1.31055c0,-0.00065 0,-0.0013 0,-0.00195c-0.07412,-0.60986 0.38078,-1.12305 1.01172,-1.12305zM11.98438,7.98633c-0.55152,0.00862 -0.99193,0.46214 -0.98437,1.01367v2c-0.0051,0.36064 0.18438,0.69608 0.49587,0.87789c0.3115,0.18181 0.69676,0.18181 1.00825,0c0.3115,-0.18181 0.50097,-0.51725 0.49587,-0.87789v-2c0.0037,-0.2703 -0.10218,-0.53059 -0.29351,-0.72155c-0.19133,-0.19097 -0.45182,-0.29634 -0.72212,-0.29212zM16.98438,7.98633c-0.55152,0.00862 -0.99193,0.46214 -0.98437,1.01367v2c-0.0051,0.36064 0.18438,0.69608 0.49587,0.87789c0.3115,0.18181 0.69676,0.18181 1.00825,0c0.3115,-0.18181 0.50097,-0.51725 0.49587,-0.87789v-2c0.0037,-0.2703 -0.10218,-0.53059 -0.29351,-0.72155c-0.19133,-0.19097 -0.45182,-0.29634 -0.72212,-0.29212zM21.98438,7.98633c-0.55152,0.00862 -0.99193,0.46214 -0.98437,1.01367v2c-0.0051,0.36064 0.18438,0.69608 0.49587,0.87789c0.3115,0.18181 0.69676,0.18181 1.00825,0c0.3115,-0.18181 0.50097,-0.51725 0.49587,-0.87789v-2c0.0037,-0.2703 -0.10218,-0.53059 -0.29351,-0.72155c-0.19133,-0.19097 -0.45182,-0.29634 -0.72212,-0.29212zM26.98438,7.98633c-0.55152,0.00862 -0.99193,0.46214 -0.98437,1.01367v2c-0.0051,0.36064 0.18438,0.69608 0.49587,0.87789c0.3115,0.18181 0.69676,0.18181 1.00825,0c0.3115,-0.18181 0.50097,-0.51725 0.49587,-0.87789v-2c0.0037,-0.2703 -0.10218,-0.53059 -0.29351,-0.72155c-0.19133,-0.19097 -0.45182,-0.29634 -0.72212,-0.29212zM31.98438,7.98633c-0.55152,0.00862 -0.99193,0.46214 -0.98437,1.01367v2c-0.0051,0.36064 0.18438,0.69608 0.49587,0.87789c0.3115,0.18181 0.69676,0.18181 1.00825,0c0.3115,-0.18181 0.50097,-0.51725 0.49587,-0.87789v-2c0.0037,-0.2703 -0.10218,-0.53059 -0.29351,-0.72155c-0.19133,-0.19097 -0.45182,-0.29634 -0.72212,-0.29212zM36.98438,7.98633c-0.55152,0.00862 -0.99193,0.46214 -0.98437,1.01367v2c-0.0051,0.36064 0.18438,0.69608 0.49587,0.87789c0.3115,0.18181 0.69676,0.18181 1.00825,0c0.3115,-0.18181 0.50097,-0.51725 0.49587,-0.87789v-2c0.0037,-0.2703 -0.10218,-0.53059 -0.29351,-0.72155c-0.19133,-0.19097 -0.45182,-0.29634 -0.72212,-0.29212zM41.98438,7.98633c-0.55152,0.00862 -0.99193,0.46214 -0.98437,1.01367v2c-0.0051,0.36064 0.18438,0.69608 0.49587,0.87789c0.3115,0.18181 0.69676,0.18181 1.00825,0c0.3115,-0.18181 0.50097,-0.51725 0.49587,-0.87789v-2c0.0037,-0.2703 -0.10218,-0.53059 -0.29351,-0.72155c-0.19133,-0.19097 -0.45182,-0.29634 -0.72212,-0.29212zM46.98438,7.98633c-0.55152,0.00862 -0.99193,0.46214 -0.98437,1.01367v2c-0.0051,0.36064 0.18438,0.69608 0.49587,0.87789c0.3115,0.18181 0.69676,0.18181 1.00825,0c0.3115,-0.18181 0.50097,-0.51725 0.49587,-0.87789v-2c0.0037,-0.2703 -0.10218,-0.53059 -0.29351,-0.72155c-0.19133,-0.19097 -0.45182,-0.29634 -0.72212,-0.29212zM51.98438,7.98633c-0.55152,0.00862 -0.99193,0.46214 -0.98437,1.01367v2c-0.0051,0.36064 0.18438,0.69608 0.49587,0.87789c0.3115,0.18181 0.69676,0.18181 1.00825,0c0.3115,-0.18181 0.50097,-0.51725 0.49587,-0.87789v-2c0.0037,-0.2703 -0.10218,-0.53059 -0.29351,-0.72155c-0.19133,-0.19097 -0.45182,-0.29634 -0.72212,-0.29212zM17,16c-1.209,0 -2.16362,1.11546 -1.97461,2.31055l2.51953,16.00195c0.15286,0.96481 0.99947,1.6875 1.97656,1.6875h19.30859l-0.69141,5.85938l-6.0293,1.83789l-5.26953,-1.78516l-0.34961,-2.22266c0,-0.00065 0,-0.0013 0,-0.00195c-0.15286,-0.96477 -0.99751,-1.6875 -1.97461,-1.6875h-4.04883c-1.21009,0 -2.16355,1.1158 -1.97656,2.31055c0,0.00065 0,0.0013 0,0.00195l1.01367,6.4375c0.11438,0.72644 0.6267,1.33644 1.32617,1.57227l10.55273,3.57422c0.00065,0 0.0013,0 0.00195,0c0.20215,0.06802 0.41597,0.10352 0.62891,0.10352c0.19324,0 0.38565,-0.02914 0.57227,-0.08594l11.64453,-3.54687c0.75169,-0.22913 1.30181,-0.88732 1.39258,-1.66992l1.94336,-16.46094c0.1399,-1.17244 -0.80329,-2.23633 -1.98437,-2.23633h-20.93164l-0.63086,-4h22.50781c1.00474,0 1.86844,-0.76662 1.98633,-1.76562v-0.00195l0.47461,-4.01758c0.13739,-1.16281 -0.79993,-2.21484 -1.9707,-2.21484zM17,18h30l-0.47266,4h-22.50781c-1.21012,0 -2.16364,1.11725 -1.97461,2.3125l0.62891,4c0.15286,0.96481 0.99947,1.6875 1.97656,1.6875h20.92969l-1.94141,16.45508l-11.625,3.54297l-10.53516,-3.56836l-1.01172,-6.42773v-0.00195h4.04883l0.44336,2.82031c0.05823,0.36737 0.31554,0.67208 0.66797,0.79102l6.14648,2.08203c0.19776,0.06699 0.41153,0.07041 0.61133,0.00977l6.96094,-2.12109c0.38047,-0.11531 0.65651,-0.44503 0.70313,-0.83984l0.76758,-6.50781c0.1381,-1.17184 -0.80525,-2.23437 -1.98633,-2.23437h-19.30859zM42.00586,52.25977c-0.09055,0.00085 -0.18057,0.01399 -0.26758,0.03906l-2,0.54102c-0.35379,0.08544 -0.63324,0.35633 -0.72963,0.7073c-0.09639,0.35097 0.0055,0.72659 0.26603,0.98074c0.26053,0.25415 0.63856,0.3467 0.98704,0.24164l2,-0.54102c0.48935,-0.12565 0.80814,-0.59655 0.74303,-1.09757c-0.06511,-0.50102 -0.49367,-0.87479 -0.99889,-0.87118zM26.97656,53.5332c-0.49845,0.0066 -0.91593,0.37927 -0.97885,0.87378c-0.06292,0.49451 0.24794,0.95985 0.72885,1.09106l5.29688,1.50391l4.23828,-1.14844c0.35379,-0.08544 0.63323,-0.35634 0.72962,-0.7073c0.09639,-0.35096 -0.0055,-0.72658 -0.26603,-0.98073c-0.26053,-0.25415 -0.63855,-0.3467 -0.98702,-0.24165l-3.70117,1.00391l-4.76367,-1.35352c-0.09634,-0.02851 -0.19642,-0.04233 -0.29688,-0.04102z"></path></g></g></svg>