<svg xmlns="http://www.w3.org/2000/svg" xmlns:xlink="http://www.w3.org/1999/xlink" viewBox="0,0,256,256" width="64px" height="64px"><g fill="#daa520" fill-rule="nonzero" stroke="none" stroke-width="1" stroke-linecap="butt" stroke-linejoin="miter" stroke-miterlimit="10" stroke-dasharray="" stroke-dashoffset="0" font-family="none" font-weight="none" font-size="none" text-anchor="none" style="mix-blend-mode: normal"><g transform="scale(4,4)"><path d="M32,3c-10.24324,0 -14,5.03808 -14,8.76367v6.23633h13v2h-19.23633c-2.21417,0 -4.48578,0.8391 -6.12891,2.80469c-1.64312,1.96559 -2.63477,4.96656 -2.63477,9.19531c0,4.22875 0.99164,7.22972 2.63477,9.19531c1.64312,1.96559 3.91473,2.80469 6.12891,2.80469h6.23633v8.23633c0,3.72559 3.75676,8.76367 14,8.76367c10.24324,0 14,-5.03808 14,-8.76367v-6.23633h-13v-2h19.23633c2.21417,0 4.48578,-0.8391 6.12891,-2.80469c1.64312,-1.96559 2.63477,-4.96656 2.63477,-9.19531c0,-4.22875 -0.99164,-7.22972 -2.63477,-9.19531c-1.64312,-1.96559 -3.91473,-2.80469 -6.12891,-2.80469h-6.23437v-8.23633c-0.0006,-1.91276 -0.93712,-4.15223 -3.16992,-5.86719c-2.2328,-1.71495 -5.71467,-2.89648 -10.83203,-2.89648zM32,5c4.80964,0 7.82758,1.11088 9.61328,2.48242c1.7857,1.37155 2.38827,3.01201 2.38867,4.28125v8.23633h-0.00195v6.9082c0,0.82107 -0.29559,1.6027 -0.78516,2.25781c-0.65322,0.87349 -1.65022,1.52288 -2.74414,1.74805c-0.27343,0.05629 -0.55217,0.08594 -0.83398,0.08594h-15.27344c-3.34548,0 -6.36328,2.68132 -6.36328,6.0918v4.9082h-6.23633c-1.73183,0 -3.34137,-0.58973 -4.59375,-2.08789c-1.25238,-1.49816 -2.16992,-3.99586 -2.16992,-7.91211c0,-3.91625 0.91755,-6.41395 2.16992,-7.91211c1.25238,-1.49816 2.86192,-2.08789 4.59375,-2.08789h21.23633v-6h-13v-4.23633c0,-2.38441 2.38924,-6.76367 12,-6.76367zM26.5,9c-1.38071,0 -2.5,1.11929 -2.5,2.5c0,1.38071 1.11929,2.5 2.5,2.5c1.38071,0 2.5,-1.11929 2.5,-2.5c0,-1.38071 -1.11929,-2.5 -2.5,-2.5zM46.00195,22h6.23438c1.73183,0 3.34137,0.58973 4.59375,2.08789c1.25238,1.49816 2.16992,3.99586 2.16992,7.91211c0,3.91625 -0.91754,6.41395 -2.16992,7.91211c-1.25238,1.49816 -2.86192,2.08789 -4.59375,2.08789h-21.23633v6h13v4.23633c0,2.38441 -2.38924,6.76367 -12,6.76367c-9.61076,0 -12,-4.37927 -12,-6.76367v-15.14453c0,-0.27369 0.03364,-0.54313 0.0957,-0.80469c0.43445,-1.83092 2.29487,-3.28711 4.26758,-3.28711h15.27344c0.20909,0 0.41717,-0.01078 0.62305,-0.03125c1.2348,-0.12277 2.39944,-0.60657 3.35352,-1.3457h0.00195c0.15857,-0.12301 0.31081,-0.25388 0.45703,-0.39062h0.00195c1.17312,-1.09664 1.92773,-2.61898 1.92773,-4.32422zM15.63672,24.06836c-0.55152,0.00862 -0.99193,0.46214 -0.98437,1.01367v2c-0.0051,0.36064 0.18438,0.69608 0.49587,0.87789c0.3115,0.18181 0.69676,0.18181 1.00825,0c0.3115,-0.18181 0.50097,-0.51725 0.49587,-0.87789v-2c0.0037,-0.2703 -0.10218,-0.53059 -0.29351,-0.72155c-0.19133,-0.19097 -0.45182,-0.29634 -0.72212,-0.29212zM20.20117,24.06836c-0.55152,0.00862 -0.99193,0.46214 -0.98437,1.01367v2c-0.0051,0.36064 0.18438,0.69608 0.49587,0.87789c0.3115,0.18181 0.69676,0.18181 1.00825,0c0.3115,-0.18181 0.50097,-0.51725 0.49587,-0.87789v-2c0.0037,-0.2703 -0.10218,-0.53059 -0.29351,-0.72155c-0.19133,-0.19097 -0.45182,-0.29634 -0.72212,-0.29212zM24.76758,24.06836c-0.55152,0.00862 -0.99193,0.46214 -0.98437,1.01367v2c-0.0051,0.36064 0.18438,0.69608 0.49587,0.87789c0.3115,0.18181 0.69676,0.18181 1.00825,0c0.3115,-0.18181 0.50097,-0.51725 0.49587,-0.87789v-2c0.0037,-0.2703 -0.10218,-0.53059 -0.29351,-0.72155c-0.19133,-0.19097 -0.45182,-0.29634 -0.72212,-0.29212zM29.33203,24.06836c-0.55152,0.00862 -0.99193,0.46214 -0.98437,1.01367v2c-0.0051,0.36064 0.18438,0.69608 0.49587,0.87789c0.3115,0.18181 0.69676,0.18181 1.00825,0c0.3115,-0.18181 0.50097,-0.51725 0.49587,-0.87789v-2c0.0037,-0.2703 -0.10218,-0.53059 -0.29351,-0.72155c-0.19133,-0.19097 -0.45182,-0.29634 -0.72212,-0.29212zM37.63672,35.98633c-0.55152,0.00862 -0.99193,0.46214 -0.98437,1.01367v2c-0.0051,0.36064 0.18438,0.69608 0.49587,0.87789c0.3115,0.18181 0.69676,0.18181 1.00825,0c0.3115,-0.18181 0.50097,-0.51725 0.49587,-0.87789v-2c0.0037,-0.2703 -0.10218,-0.53059 -0.29351,-0.72155c-0.19133,-0.19097 -0.45182,-0.29634 -0.72212,-0.29212zM42.20117,35.98633c-0.55152,0.00862 -0.99193,0.46214 -0.98437,1.01367v2c-0.0051,0.36064 0.18438,0.69608 0.49587,0.87789c0.3115,0.18181 0.69676,0.18181 1.00825,0c0.3115,-0.18181 0.50097,-0.51725 0.49587,-0.87789v-2c0.0037,-0.2703 -0.10218,-0.53059 -0.29351,-0.72155c-0.19133,-0.19097 -0.45182,-0.29634 -0.72212,-0.29212zM46.76758,35.98633c-0.55152,0.00862 -0.99193,0.46214 -0.98437,1.01367v2c-0.0051,0.36064 0.18438,0.69608 0.49587,0.87789c0.3115,0.18181 0.69676,0.18181 1.00825,0c0.3115,-0.18181 0.50097,-0.51725 0.49587,-0.87789v-2c0.0037,-0.2703 -0.10218,-0.53059 -0.29351,-0.72155c-0.19133,-0.19097 -0.45182,-0.29634 -0.72212,-0.29212zM51.33203,35.98633c-0.55152,0.00862 -0.99193,0.46214 -0.98437,1.01367v2c-0.0051,0.36064 0.18438,0.69608 0.49587,0.87789c0.3115,0.18181 0.69676,0.18181 1.00825,0c0.3115,-0.18181 0.50097,-0.51725 0.49587,-0.87789v-2c0.0037,-0.2703 -0.10218,-0.53059 -0.29351,-0.72155c-0.19133,-0.19097 -0.45182,-0.29634 -0.72212,-0.29212zM38.5,50c-1.38071,0 -2.5,1.11929 -2.5,2.5c0,1.38071 1.11929,2.5 2.5,2.5c1.38071,0 2.5,-1.11929 2.5,-2.5c0,-1.38071 -1.11929,-2.5 -2.5,-2.5z"></path></g></g></svg>